<svg id="Layer_3" height="512" viewBox="0 0 64 64" width="512" xmlns="http://www.w3.org/2000/svg" data-name="Layer 3"><path d="m31 35 4 1 8.057 1.074a8 8 0 0 1 6.943 7.926v10h-46v-10a8 8 0 0 1 6.943-7.93l8.057-1.07 4-1z" fill="#ccc"/><path d="m27 38-4 5-4-7 4-1z" fill="#b5b5b5"/><path d="m31 35 4 1-4 7-4-5z" fill="#b5b5b5"/><path d="m30 55-2-9h-2l-2 9z" fill="#78a0d4"/><path d="m30.077 41.846-2.077 4.154h-2l-2.077-4.154 3.077-3.846z" fill="#5e87ca"/><path d="m31 31.064a8.96 8.96 0 0 1 -4 .936 8.96 8.96 0 0 1 -4-.936v3.936l4 3 4-3z" fill="#f2b9a1"/><path d="m36 18h2l.859-4.293a7.279 7.279 0 0 0 .141-1.428 7.279 7.279 0 0 0 -7.279-7.279h-2.221a1.5 1.5 0 0 1 -1.5-1.5 1.5 1.5 0 0 0 -1.5-1.5h-3.1a8.4 8.4 0 0 0 -8.4 8.4 8.432 8.432 0 0 0 .084 1.188l.916 6.412h2v-.929a5 5 0 0 1 1.464-3.535l2.829-2.829a2.414 2.414 0 0 1 1.707-.707 2.414 2.414 0 0 1 1.707.707l3.222 3.222a1.516 1.516 0 0 0 2.142 0 1.515 1.515 0 0 1 1.98-.141l2.149 1.612a2 2 0 0 1 .8 1.6z" fill="#976947"/><path d="m36 17v6a9 9 0 0 1 -9 9 9 9 0 0 1 -9-9v-5.929a5 5 0 0 1 1.464-3.535l2.829-2.829a2.414 2.414 0 0 1 1.707-.707 2.414 2.414 0 0 1 1.707.707l3.222 3.222a1.516 1.516 0 0 0 2.142 0 1.515 1.515 0 0 1 1.98-.141l2.149 1.612a2 2 0 0 1 .8 1.6z" fill="#fbe1ca"/><path d="m18 18h-2a3 3 0 0 0 -3 3 3 3 0 0 0 3 3h2" fill="#f2b9a1"/><path d="m36 18h2a3 3 0 0 1 3 3 3 3 0 0 1 -3 3h-2" fill="#f2b9a1"/><path d="m2 55h60v7h-60z" fill="#976947"/><path d="m60 58v-3h-58v4h57a1 1 0 0 0 1-1z" fill="#c18e59"/><path d="m44 55v-4a2 2 0 0 1 2-2h12a2 2 0 0 1 2 2v4" fill="#686868"/><path d="m47 49v-4a2 2 0 0 1 2-2h6a2 2 0 0 1 2 2v4" fill="#939393"/><rect fill="#686868" height="6" rx="2" width="8" x="40" y="27"/><path d="m53 43h-2v-11a1 1 0 0 0 -1-1h-2v-2h2a3 3 0 0 1 3 3z" fill="#474747"/><path d="m54.338 45.987v-2.987h-5.338a2 2 0 0 0 -2 2v1.987h6.338a1 1 0 0 0 1-1z" fill="#b5b5b5"/><path d="m57 52v-3h-11a2 2 0 0 0 -2 2v2h12a1 1 0 0 0 1-1z" fill="#757575"/><path d="m62 54h-1v-3a3 3 0 0 0 -3-3v-3a3 3 0 0 0 -3-3h-2v-10a3 3 0 0 0 -3-3h-1a3 3 0 0 0 -3-3h-4a3 3 0 0 0 -3 3v2a3 3 0 0 0 3 3h4a3 3 0 0 0 3-3h1a1 1 0 0 1 1 1v10h-.54a8.943 8.943 0 0 0 -7.271-5.917l-8-1.067-3.189-.797v-2.572a10.021 10.021 0 0 0 4.8-6.647h1.2a3.989 3.989 0 0 0 1.18-7.8l.659-3.3a8.277 8.277 0 0 0 -8.118-9.9h-2.221a.5.5 0 0 1 -.5-.5 2.5 2.5 0 0 0 -2.5-2.5h-3.1a9.4 9.4 0 0 0 -9.3 10.733l.778 5.449a3.989 3.989 0 0 0 1.122 7.818h1.2a10.021 10.021 0 0 0 4.8 6.647v2.572l-3.189.8-8 1.067a9.029 9.029 0 0 0 -7.811 8.914v9h-1a1 1 0 0 0 -1 1v7a1 1 0 0 0 1 1h60a1 1 0 0 0 1-1v-7a1 1 0 0 0 -1-1zm-15-23a1 1 0 0 1 -1 1h-4a1 1 0 0 1 -1-1v-2a1 1 0 0 1 1-1h4a1 1 0 0 1 1 1zm12 20v3h-14v-3a1 1 0 0 1 1-1h12a1 1 0 0 1 1 1zm-3-6v3h-8v-3a1 1 0 0 1 1-1h6a1 1 0 0 1 1 1zm-7.651-2.924a3 3 0 0 0 -2.349 2.924v3a3 3 0 0 0 -3 3v3h-12.2l-1.749-7.87 1.228-2.456a1 1 0 0 0 .721.326q.039 0 .078 0a1 1 0 0 0 .79-.5l3.666-6.416 7.391.985a6.962 6.962 0 0 1 5.424 4.007zm-20.967 2.924h-.764l-1.518-3.029 1.9-2.371 1.9 2.371zm-.58 2h.4l1.556 7h-3.512zm4.06-5.773-2.437-3.046 2.794-2.095 2.258.564zm9.138-20.227a2 2 0 0 1 -2 2h-1v-4h1a2 2 0 0 1 2 2zm-24 2a2 2 0 0 1 0-4h1v4zm1-6h-.136l-.793-5.55a7.5 7.5 0 0 1 -.071-1.05 7.411 7.411 0 0 1 7.4-7.4h3.1a.5.5 0 0 1 .5.5 2.5 2.5 0 0 0 2.5 2.5h2.221a6.278 6.278 0 0 1 6.157 7.51l-.698 3.49h-.18a3.014 3.014 0 0 0 -1.2-2.4l-2.149-1.612a2.53 2.53 0 0 0 -3.287.234.517.517 0 0 1 -.728 0l-3.222-3.222a3.5 3.5 0 0 0 -4.828 0l-2.829 2.829a5.96 5.96 0 0 0 -1.757 4.171zm2 6v-5.929a3.974 3.974 0 0 1 1.171-2.828l2.829-2.829a1.415 1.415 0 0 1 2 0l3.222 3.222a2.575 2.575 0 0 0 3.556 0 .518.518 0 0 1 .673-.048l2.149 1.612a1 1 0 0 1 .4.8v6a8 8 0 0 1 -16 0zm8 10a9.954 9.954 0 0 0 3-.461v1.961l-3 2.25-3-2.25v-1.961a9.954 9.954 0 0 0 3 .461zm-4.219 3.086 2.794 2.095-2.437 3.046-2.615-4.577zm-17.781 8.914a7.023 7.023 0 0 1 6.075-6.939l7.391-.985 3.666 6.424a1 1 0 0 0 .79.5q.039 0 .078 0a1 1 0 0 0 .719-.326l1.228 2.456-1.747 7.87h-18.2zm56 16h-58v-5h58z"/></svg>