<svg id="Layer_1" enable-background="new 0 0 148 148" height="512" viewBox="0 0 148 148" width="512" xmlns="http://www.w3.org/2000/svg"><g><circle cx="74" cy="75.6" fill="#7dcedc" r="64"/><g><path d="m125.1 20.7h-56.2c-1.4 0-2.5 1.1-2.5 2.5v42.4c0 1.4 1.1 2.5 2.5 2.5h56.2c1.4 0 2.5-1.1 2.5-2.5v-42.3c0-1.4-1.1-2.6-2.5-2.6z" fill="#f3f3f3"/><g fill="#dad9d8"><path d="m76.1 31.8h41.9v3.8h-41.9z"/><path d="m76.1 42.6h41.9v3.8h-41.9z"/><path d="m76.1 53.3h41.9v3.8h-41.9z"/></g><g><path d="m87.5 32.3-.2 4.1s2.1-.7 4.3 1.1c.3.3.9.2 1.1-.2.1-.3 0-.6-.2-.8l-2.4-1.7s1.9-.5 3.8.4c.7.4 1.6-.1 1.7-.9.1-.5-.1-.9-.5-1.2-1.3-.9-4.5-2.6-7.6-.8z" fill="#f6bb53"/><path d="m27.1 67.7 3.5-.5s-.4 1.9 1.4 3.6c.3.3.2.7-.1.9-.2.1-.5.1-.7-.1l-1.7-1.9s-.3 1.7.7 3.3c.4.6.1 1.4-.6 1.6-.4.1-.8 0-1.1-.3-.9-1.1-2.6-3.7-1.4-6.6z" fill="#fdda7f"/><path d="m33.4 63.7 11.8.6 11.8-.6.2 52c0 .5-.4.9-.9.9h-6.1c-.5 0-.8-.3-.9-.8l-4.1-42.6-4.1 42.6c0 .5-.4.8-.9.8h-6.1c-.5 0-.9-.4-.9-.9z" fill="#25313b"/><g fill="#474f59"><path d="m87.2 30.7-31.6-2-6.5-2.5-3.6 1.6h-.1v16.2l-.3-16.3-3.4-1.6-7.7 3c-10.4 3.3-9.2 27.4-8 38.2 0 .4.4.7.8.7h4.2c.4 0 .8-.3.8-.7.1-4.8.2-20 1.2-23.6.3 7.1.2 18.2-.8 25.9 0 .4.2.7.6.7 1.5 0 5.4.1 9.6.1 1 0 1.8-.6 2.2-1.5l.7-1.6.9 1.6c.4.9 1.3 1.5 2.3 1.5 4.4 0 8.3 0 9.9-.1.4 0 .6-.3.6-.7-1.2-7.6-1.2-18.8-1-25.8l.2-2.7 29-3.7c.4 0 .8-.4.8-.8v-5.1c0-.4-.4-.8-.8-.8z"/><path d="m33.5 117.4c.5-1.6 2-4.1 3.8-4.1s3.3 2.5 3.8 4.1c.2.5-.2 1.1-.8 1.1h-5.9c-.7-.1-1.1-.6-.9-1.1z"/><path d="m49.7 117.4c.5-1.6 2-4.1 3.8-4.1s3.3 2.5 3.8 4.1c.2.5-.2 1.1-.8 1.1h-5.9c-.7-.1-1.1-.6-.9-1.1z"/></g><path d="m40.9 20.7h9.1v9.5h-9.1z" fill="#f6bb53"/><path d="m41.7 26.2 3.8 1.4 3.8-1.4 1.9.7 1.1.4v10.3c-.3.5-.7 1.1-1.2 1.6-.7.8-1.5 1.6-1.3 2.6-2.5 3.3-4.3 4.9-4.3 4.9-.4-.4-5.4-7.3-6.5-9.3l-.3-10.1c1.3-.5.7-.2 3-1.1z" fill="#dad9d8"/><path d="m43.2 29.5 1.1-1.9h2.2l1.2 1.9-1.3 1.9 1 12.9-2 2.4-1.9-2.4 1-12.8z" fill="#f37c5a"/><g fill="#f3f3f3"><path d="m40.9 25.2 4.6 2.4-2.2 2.4c-.3.3-.8.3-1.1 0l-2.8-3z"/><path d="m51.5 27.1-2.8 3c-.3.3-.8.3-1.1 0l-2.1-2.4 4.6-2.4z"/></g><path d="m45.4 46.7s5.2-3.1 8.3-10.7c.1-.2.1-.4-.1-.6l-.6-1.1c-.2-.3-.1-.7.2-.9l1-.6c.2-.1.3-.4.3-.6l-.9-4.4-2.6-1.3s0 .1.1.4c.3 2 .7 10.4-5.7 19.8z" fill="#25313b"/><path d="m36.3 32.3c0 .2.1.5.3.6l1 .6c.3.2.4.6.2.9l-.7 1.1c-.1.2-.1.4-.1.6 2.2 5.4 5.9 9.3 8.3 10.7-6.6-9.6-6.1-19.1-5.6-20.1l-2.6 1.3z" fill="#25313b"/><g><g fill="#fdda7f"><path d="m39.9 18c.4 2.6-1.4 2.9-1.8.3-.4-2.7 1.4-2.9 1.8-.3z"/><path d="m51 18c-.4 2.6 1.4 2.9 1.8.3.4-2.7-1.4-2.9-1.8-.3z"/><path d="m45.5 9.7c3.2 0 5.8 2.6 5.9 5.8l.1 4.5c0 .9-.3 1.8-.9 2.5l-1.6 1.8c-2 2.2-5.1 2-6.7.1-1.7-1.9-2.7-2.7-2.6-4.4l.1-4.5c-.1-3.3 2.5-5.8 5.7-5.8z"/></g><path d="m39.9 10.9h.2s-2.1-3.6 5.1-3.9c8-.3 7 6.7 7 6.7s0 0 0 0c-.1 1.6-.9 3.6-.9 4.5 0 .2-.3.2-.3 0 0-.5.1-2.6-.4-4.5-2.4 0-6.9.2-9.3-1.4-1.3 2.1-1.4 5.1-1.3 5.8 0 .1-.1.1-.1.1-.1 0-.2-.1-.2-.1 0-1.2-.5-1.7-.9-4.2-.6-3.3 1.1-3 1.1-3z" fill="#25313b"/></g></g><g><g><g><path d="m52.3 87.9h-23.3c.1.4.2.8.3 1.1.8 3 .7 1.1.6 6.9-.1 3.1 1.6 4.6 4.1 7.4v9h13.4v-9.1c4.5-5.1 4.1-4.2 4-11.5.1-.9.6-2.4.9-3.8z" fill="#fdda7f"/><path d="m64.4 117.7c-.5-4.8-7.6-7-7.6-7l-4.6-1.8-3.6-2-1.2-1.7h-13.4l-1.2 1.7-3.6 2-4.6 1.8s-7.1 2.2-7.6 7c-.3 2.5-.5 7.3-.6 11.3-.1 3.5 2.6 6.3 6.1 6.3h36.4c3.5 0 6.2-2.9 6.1-6.3-.1-3.9-.4-8.8-.6-11.3z" fill="#db674c"/><path d="m50.7 92.3c-.7 4.7 2.6 5.2 3.3.5.8-4.7-2.5-5.2-3.3-.5z" fill="#fdda7f"/><path d="m30.6 92.3c.7 4.7-2.6 5.2-3.3.5s2.6-5.2 3.3-.5z" fill="#fdda7f"/><path d="m52.9 85.1c-.1.5-.7 3.8-.9 4.2-1.3 3.5-.6 5.5-1.7 8.5-.7 1.8-1.1 3.8-3.2 3.8-13 0-14.2.5-15.1-1.7-2.5-6.5-1-6.5-2.5-10.6l-.2-.2c-.3-1.2-.8-3.4-.8-4.5s-1.8-12.8 12.7-12.2c13 .5 9.2 7 9.2 7 2.9.1 3 2.8 2.5 5.7z" fill="#474f59"/><path d="m48.6 107h-15.9l1-3.7h13.9z" fill="#f37c5a"/></g><g><path d="m121.5 87.9h-23.4c.1.4.2.8.3 1.1.8 3 .7 1.1.6 6.9 0 1.7.5 3.3 1.6 4.5v.1l.9 1 1.6 1.8v9h13.4v-9.1c4.5-5.1 4.1-4.2 4-11.5.1-.8.3-1.5.6-2.4.1-.4.3-.9.4-1.4z" fill="#fdda7f"/><path d="m121.4 109-3.6-2-1.2-1.7h-13.4l-1.2 1.7-3.6 2c-13.4 5.2-12.2 4.6-12.8 20-.1 3.5 2.6 6.3 6.1 6.3h36.4c3.5 0 6.2-2.9 6.1-6.3-.6-15.5.5-14.9-12.8-20z" fill="#db674c"/><path d="m119.9 92.3c-.7 4.7 2.6 5.2 3.3.5s-2.6-5.2-3.3-.5z" fill="#fdda7f"/><path d="m99.8 92.3c.3 2-.2 3.7-1.1 3.8s-1.9-1.4-2.2-3.3c-.7-4.7 2.6-5.2 3.3-.5z" fill="#fdda7f"/><path d="m120.2 93.9c-.1 1.3-.3 2.7-.8 3.9-.7 1.8-1.1 3.8-3.2 3.8h-12.6c-1.1 0-2.1-.7-2.5-1.7l-.8-2c-.5-1.3-.7-2.6-.8-4-.2-2.4-.9-4.5-.9-4.5l-.2-.2c-.3-1.2-.8-3.4-.8-4.5s-1.8-12.8 12.7-12.2c13 .5 9.2 7 9.2 7h.3c5.1.1.7 10.5.4 14.4z" fill="#474f59"/><path d="m117.8 107h-15.9l1-3.7h13.9z" fill="#f37c5a"/></g></g><g><path d="m88.2 88.1h-26c.1.5.2.9.3 1.3.9 3.4.8 1.2.7 7.6-.1 1.9.6 3.7 1.8 5.1 0 0 0 .1.1.1l1 1.1 1.8 2v10h14.9v-10.1c4.8-5.5 4.6-4.4 4.4-12.9.1-.9.4-1.6.7-2.7.1-.5.2-.9.3-1.5z" fill="#fdda7f"/><path d="m101.7 121.3c-.6-5.6-8.4-7.7-13.6-9.7l-4-2.2-1.4-1.9h-14.9l-1.4 2-4 2.2-5.1 2s-7.9 2.5-8.5 7.8c-.3 2.8-.5 8.2-.7 12.6-.1 3.9 2.9 7.1 6.8 7.1h40.6c3.9 0 7-3.2 6.8-7.1-.1-4.6-.3-9.9-.6-12.8z" fill="#dad9d8"/><path d="m88.9 89.3c-2.4-.4-3.6 7.6-1.2 8 1 .2 2.1-1.5 2.4-3.7.4-2.2-.1-4.1-1.2-4.3z" fill="#fdda7f"/><path d="m61.6 89.3c1-.2 2.1 1.5 2.4 3.7s-.2 4.1-1.2 4.3c-2.4.4-3.6-7.6-1.2-8z" fill="#fdda7f"/><path d="m88.9 84.9c-.4 2.1-.7 3.5-1 4.6-1.4 3.9-.7 6.1-1.9 9.5-.8 2.1-1.2 4.2-3.6 4.2h-14.1c-1.2 0-2.3-.8-2.8-1.9l-.9-2.3c-.5-1.4-.8-2.9-.9-4.5-.2-2.7-1-5.1-1-5.1l-.2-.2c-.4-1.4-.9-3.8-.9-5s-2-14.2 14.1-13.6c14.5.7 10.3 8 10.3 8h.4c1.7.1 3.3 1.4 2.5 6.3z" fill="#474f59"/><path d="m84.1 109.4h-17.7l1.1-4.1h15.5z" fill="#f3f3f3"/></g></g></g></g></svg>