<?xml version="1.0" standalone="no"?>
<!DOCTYPE svg PUBLIC "-//W3C//DTD SVG 20010904//EN"
 "http://www.w3.org/TR/2001/REC-SVG-20010904/DTD/svg10.dtd">
<svg version="1.0" xmlns="http://www.w3.org/2000/svg"
 width="777.000000pt" height="782.000000pt" viewBox="0 0 777.000000 782.000000"
 preserveAspectRatio="xMidYMid meet">

<g transform="translate(0.000000,782.000000) scale(0.100000,-0.100000)"
fill="#000000" stroke="none">
<path d="M0 3910 l0 -3910 3885 0 3885 0 0 3910 0 3910 -3885 0 -3885 0 0
-3910z m6585 1020 l0 -1095 -23 -84 c-87 -320 -330 -561 -650 -648 -82 -22
-117 -26 -232 -26 -161 0 -230 14 -383 81 l-57 25 -83 -33 c-127 -50 -252 -72
-377 -67 -412 19 -753 296 -852 694 -31 125 -31 314 1 432 71 266 244 479 484
596 115 56 223 84 352 92 143 8 281 -19 451 -88 28 -11 38 -10 85 11 355 153
755 78 1024 -194 39 -39 90 -102 114 -139 31 -48 47 -64 52 -55 5 7 9 367 9
799 0 432 3 789 7 793 4 4 23 6 43 4 l35 -3 0 -1095z m-5087 559 c13 -5 22
-15 19 -22 -4 -13 -19 -13 -79 -2 -67 13 -114 -39 -70 -77 9 -8 40 -21 67 -27
63 -16 95 -44 95 -87 0 -55 -28 -77 -102 -82 -47 -3 -74 0 -97 13 -34 17 -37
43 -5 36 10 -2 48 -4 83 -5 51 -1 66 3 75 17 18 29 -5 50 -85 77 -54 19 -77
31 -86 50 -18 35 -16 53 8 84 33 42 103 52 177 25z m755 4 c15 -14 -18 -33
-59 -33 l-43 0 -3 -132 c-3 -116 -5 -133 -20 -136 -16 -3 -18 10 -20 130 l-3
133 -47 5 c-51 6 -64 13 -53 29 7 12 237 16 248 4z m537 -112 c5 -103 7 -114
29 -132 25 -20 81 -25 111 -9 28 15 40 65 40 167 0 85 2 94 18 91 15 -3 17
-17 20 -108 4 -157 -25 -200 -135 -200 -44 0 -58 5 -85 29 l-33 29 -3 127 c-3
119 -2 127 15 123 16 -3 19 -17 23 -117z m980 96 c57 -30 82 -76 77 -143 -7
-100 -71 -144 -210 -144 l-87 0 0 155 0 155 88 0 c73 0 96 -4 132 -23z m808 6
c-3 -15 -17 -19 -83 -23 l-80 -5 0 -40 0 -40 70 -5 c56 -4 70 -8 73 -22 3 -16
-5 -18 -60 -18 -70 0 -88 -10 -88 -49 0 -44 11 -50 95 -53 67 -3 80 -6 83 -20
3 -16 -7 -18 -107 -18 l-111 0 0 148 c0 82 3 152 7 155 3 4 51 7 105 7 89 0
99 -2 96 -17z m619 -40 c27 -32 66 -79 86 -105 21 -27 42 -48 47 -48 5 0 11
46 12 102 3 89 5 103 21 106 16 3 17 -9 17 -152 0 -195 -3 -196 -118 -51 -46
58 -88 105 -93 105 -5 0 -9 -45 -9 -100 0 -83 -3 -102 -16 -107 -9 -3 -20 0
-25 8 -9 14 -10 247 -1 282 8 30 28 19 79 -40z m939 46 c10 -17 -16 -29 -63
-29 l-43 0 0 -135 c0 -128 -1 -135 -20 -135 -18 0 -20 8 -22 133 l-3 132 -45
5 c-32 4 -46 10 -48 23 -3 15 8 17 117 17 77 0 122 -4 127 -11z m-3753 -618
c43 -11 105 -33 138 -47 66 -30 57 -31 192 20 362 137 804 5 1037 -309 66 -89
140 -238 140 -282 0 -11 -91 -13 -478 -13 l-478 0 -18 49 c-53 147 -255 381
-329 381 -30 0 -143 -96 -203 -174 -118 -150 -174 -313 -174 -506 0 -226 73
-407 230 -568 81 -83 132 -116 165 -108 37 9 178 148 230 226 25 37 58 98 74
136 l29 69 476 3 c548 3 497 15 447 -106 -63 -155 -216 -337 -354 -420 -143
-86 -332 -142 -483 -142 -98 0 -256 32 -346 69 -40 17 -80 31 -89 31 -9 0 -41
-11 -70 -24 -91 -40 -217 -68 -329 -73 -365 -17 -728 213 -869 550 -57 137
-74 233 -68 387 5 154 21 227 78 348 128 278 389 474 692 523 84 13 273 3 360
-20z m-848 -2085 c44 -19 50 -52 8 -41 -16 4 -51 9 -79 12 -47 4 -55 2 -85
-25 -31 -28 -34 -35 -34 -87 0 -52 3 -59 34 -87 30 -27 38 -29 85 -25 28 3 63
8 79 12 21 6 27 4 27 -9 0 -44 -138 -63 -198 -26 -38 23 -68 68 -77 117 -8 46
28 120 74 150 40 27 113 31 166 9z m771 -2 c49 -23 77 -68 81 -128 8 -98 -56
-166 -154 -166 -103 0 -164 51 -170 144 -7 96 60 166 160 166 27 0 64 -7 83
-16z m644 -101 c6 -130 18 -153 81 -153 80 0 91 18 98 160 5 84 9 105 21 105
12 0 16 -18 18 -90 4 -118 -3 -153 -40 -187 -26 -24 -38 -28 -90 -28 -55 0
-63 3 -94 34 l-34 34 0 114 c0 63 3 118 7 122 20 19 28 -9 33 -111z m870 25
c83 -104 96 -118 104 -118 3 0 6 42 6 94 0 72 4 96 15 106 30 25 36 -3 33
-151 -3 -122 -5 -144 -19 -147 -10 -2 -48 37 -103 103 -48 58 -91 103 -96 100
-6 -4 -10 -51 -10 -106 0 -90 -2 -100 -17 -97 -16 3 -18 19 -21 143 -1 76 0
145 2 152 11 28 35 10 106 -79z m920 77 c40 -21 41 -50 3 -40 -16 4 -52 9 -81
12 -49 5 -54 3 -87 -30 -28 -28 -35 -43 -35 -73 0 -44 28 -97 60 -114 22 -12
87 -9 143 5 21 6 27 4 27 -9 0 -24 -53 -46 -113 -46 -160 0 -220 198 -87 287
40 28 125 31 170 8z m595 -7 c3 -13 4 -81 3 -153 -3 -122 -4 -130 -23 -130
-19 0 -20 8 -23 140 -1 76 0 145 2 152 8 21 35 15 41 -9z m585 -114 l5 -129
80 -5 c66 -4 80 -8 83 -22 3 -16 -7 -18 -102 -18 l-106 0 0 148 c0 82 3 152 7
156 21 20 28 -10 33 -130z"/>
<path d="M5165 4610 c-132 -106 -232 -264 -276 -440 -18 -70 -21 -104 -17
-219 4 -120 8 -146 35 -223 76 -217 223 -378 446 -488 198 -97 485 -93 690 11
305 155 479 471 447 809 -9 98 -25 160 -44 172 -6 4 -201 8 -434 8 -394 0
-423 1 -428 18 -22 65 -94 191 -143 249 -59 70 -166 163 -187 163 -7 0 -47
-27 -89 -60z"/>
<path d="M3597 5453 c-9 -8 -9 -186 -1 -207 9 -23 116 -22 154 1 72 42 71 161
-2 199 -27 14 -139 20 -151 7z"/>
<path d="M2153 2740 c-62 -37 -64 -147 -4 -189 20 -15 45 -21 81 -21 44 0 56
4 81 29 24 25 29 37 29 81 0 28 -5 60 -10 71 -26 48 -121 64 -177 29z"/>
</g>
</svg>
